<mxfile host="app.diagrams.net" modified="2023-06-02T21:46:59.271Z" agent="Mozilla/5.0 (Windows NT 10.0; Win64; x64) AppleWebKit/537.36 (KHTML, like Gecko) Chrome/113.0.0.0 Safari/537.36" etag="AmgAEVPty2osf_nAbvsR" version="21.3.2" type="device">
  <diagram id="d6dRw2vUkmt04XP3Q4ES" name="Page-1">
    <mxGraphModel dx="1500" dy="784" grid="1" gridSize="10" guides="1" tooltips="1" connect="1" arrows="1" fold="1" page="1" pageScale="1" pageWidth="850" pageHeight="1100" math="0" shadow="0">
      <root>
        <mxCell id="0" />
        <mxCell id="1" parent="0" />
        <mxCell id="XPTqr4eP9nlIjBYoCOKv-3" value="VPC" style="sketch=0;outlineConnect=0;gradientColor=none;html=1;whiteSpace=wrap;fontSize=12;fontStyle=0;shape=mxgraph.aws4.group;grIcon=mxgraph.aws4.group_vpc;strokeColor=#879196;fillColor=none;verticalAlign=top;align=left;spacingLeft=30;fontColor=#879196;dashed=0;" parent="1" vertex="1">
          <mxGeometry x="80" y="370" width="680" height="370" as="geometry" />
        </mxCell>
        <mxCell id="IjwQ7RfniSSAgG7k8dG2-21" style="edgeStyle=orthogonalEdgeStyle;rounded=0;orthogonalLoop=1;jettySize=auto;html=1;entryX=0.5;entryY=0;entryDx=0;entryDy=0;entryPerimeter=0;" parent="1" source="IjwQ7RfniSSAgG7k8dG2-3" target="IjwQ7RfniSSAgG7k8dG2-6" edge="1">
          <mxGeometry relative="1" as="geometry">
            <Array as="points">
              <mxPoint x="397" y="300" />
              <mxPoint x="320" y="300" />
            </Array>
          </mxGeometry>
        </mxCell>
        <mxCell id="IjwQ7RfniSSAgG7k8dG2-3" value="Fire TV Stick " style="rounded=1;whiteSpace=wrap;html=1;" parent="1" vertex="1">
          <mxGeometry x="337.63" y="170" width="120" height="60" as="geometry" />
        </mxCell>
        <mxCell id="IjwQ7RfniSSAgG7k8dG2-10" style="edgeStyle=orthogonalEdgeStyle;rounded=0;orthogonalLoop=1;jettySize=auto;html=1;entryX=0.25;entryY=0;entryDx=0;entryDy=0;entryPerimeter=0;" parent="1" source="IjwQ7RfniSSAgG7k8dG2-6" target="rf60wUmHrjT9KDY4V9XP-1" edge="1">
          <mxGeometry relative="1" as="geometry">
            <Array as="points">
              <mxPoint x="300" y="550" />
              <mxPoint x="300" y="550" />
            </Array>
            <mxPoint x="306" y="560" as="targetPoint" />
          </mxGeometry>
        </mxCell>
        <mxCell id="IjwQ7RfniSSAgG7k8dG2-13" value="&lt;div&gt;user&lt;/div&gt;&lt;div&gt;authentication&lt;br&gt;&lt;/div&gt;" style="edgeLabel;html=1;align=center;verticalAlign=middle;resizable=0;points=[];" parent="IjwQ7RfniSSAgG7k8dG2-10" vertex="1" connectable="0">
          <mxGeometry x="-0.2824" y="-2" relative="1" as="geometry">
            <mxPoint x="-38" y="36" as="offset" />
          </mxGeometry>
        </mxCell>
        <mxCell id="IjwQ7RfniSSAgG7k8dG2-6" value="&lt;div&gt;AWS Workspaces&lt;/div&gt;" style="sketch=0;points=[[0,0,0],[0.25,0,0],[0.5,0,0],[0.75,0,0],[1,0,0],[0,1,0],[0.25,1,0],[0.5,1,0],[0.75,1,0],[1,1,0],[0,0.25,0],[0,0.5,0],[0,0.75,0],[1,0.25,0],[1,0.5,0],[1,0.75,0]];outlineConnect=0;fontColor=#232F3E;gradientColor=#4AB29A;gradientDirection=north;fillColor=#116D5B;strokeColor=#ffffff;dashed=0;verticalLabelPosition=bottom;verticalAlign=top;align=center;html=1;fontSize=12;fontStyle=0;aspect=fixed;shape=mxgraph.aws4.resourceIcon;resIcon=mxgraph.aws4.workspaces;" parent="1" vertex="1">
          <mxGeometry x="280.75" y="410" width="78" height="78" as="geometry" />
        </mxCell>
        <mxCell id="IjwQ7RfniSSAgG7k8dG2-11" style="edgeStyle=orthogonalEdgeStyle;rounded=0;orthogonalLoop=1;jettySize=auto;html=1;entryX=0.75;entryY=1;entryDx=0;entryDy=0;entryPerimeter=0;exitX=0.75;exitY=0;exitDx=0;exitDy=0;exitPerimeter=0;" parent="1" source="rf60wUmHrjT9KDY4V9XP-1" target="IjwQ7RfniSSAgG7k8dG2-6" edge="1">
          <mxGeometry relative="1" as="geometry">
            <Array as="points" />
            <mxPoint x="339" y="560" as="sourcePoint" />
          </mxGeometry>
        </mxCell>
        <mxCell id="IjwQ7RfniSSAgG7k8dG2-12" value="&lt;div&gt;managed &lt;br&gt;&lt;/div&gt;&lt;div&gt;user&lt;/div&gt;" style="edgeLabel;html=1;align=center;verticalAlign=middle;resizable=0;points=[];" parent="IjwQ7RfniSSAgG7k8dG2-11" vertex="1" connectable="0">
          <mxGeometry x="-0.2269" y="1" relative="1" as="geometry">
            <mxPoint x="32" y="7" as="offset" />
          </mxGeometry>
        </mxCell>
        <mxCell id="IjwQ7RfniSSAgG7k8dG2-24" style="edgeStyle=orthogonalEdgeStyle;rounded=0;orthogonalLoop=1;jettySize=auto;html=1;entryX=0;entryY=0.5;entryDx=0;entryDy=0;entryPerimeter=0;startArrow=classic;startFill=1;exitX=1;exitY=0.5;exitDx=0;exitDy=0;exitPerimeter=0;" parent="1" source="rf60wUmHrjT9KDY4V9XP-1" target="IjwQ7RfniSSAgG7k8dG2-23" edge="1">
          <mxGeometry relative="1" as="geometry">
            <mxPoint x="353.5" y="600.5" as="sourcePoint" />
            <Array as="points" />
          </mxGeometry>
        </mxCell>
        <mxCell id="IjwQ7RfniSSAgG7k8dG2-22" style="edgeStyle=orthogonalEdgeStyle;rounded=0;orthogonalLoop=1;jettySize=auto;html=1;entryX=0.5;entryY=0;entryDx=0;entryDy=0;entryPerimeter=0;" parent="1" source="IjwQ7RfniSSAgG7k8dG2-16" target="IjwQ7RfniSSAgG7k8dG2-6" edge="1">
          <mxGeometry relative="1" as="geometry">
            <Array as="points">
              <mxPoint x="540" y="300" />
              <mxPoint x="320" y="300" />
            </Array>
          </mxGeometry>
        </mxCell>
        <mxCell id="IjwQ7RfniSSAgG7k8dG2-16" value="Base computer, notebook" style="rounded=1;whiteSpace=wrap;html=1;" parent="1" vertex="1">
          <mxGeometry x="476.63" y="170" width="120" height="60" as="geometry" />
        </mxCell>
        <mxCell id="IjwQ7RfniSSAgG7k8dG2-20" style="edgeStyle=orthogonalEdgeStyle;rounded=0;orthogonalLoop=1;jettySize=auto;html=1;entryX=0.5;entryY=0;entryDx=0;entryDy=0;entryPerimeter=0;" parent="1" source="IjwQ7RfniSSAgG7k8dG2-18" target="IjwQ7RfniSSAgG7k8dG2-6" edge="1">
          <mxGeometry relative="1" as="geometry">
            <Array as="points">
              <mxPoint x="257" y="300" />
              <mxPoint x="320" y="300" />
            </Array>
          </mxGeometry>
        </mxCell>
        <mxCell id="IjwQ7RfniSSAgG7k8dG2-18" value="Tablets" style="rounded=1;whiteSpace=wrap;html=1;" parent="1" vertex="1">
          <mxGeometry x="196.63" y="170" width="120" height="60" as="geometry" />
        </mxCell>
        <mxCell id="IjwQ7RfniSSAgG7k8dG2-23" value="AWS Managed AD" style="sketch=0;points=[[0,0,0],[0.25,0,0],[0.5,0,0],[0.75,0,0],[1,0,0],[0,1,0],[0.25,1,0],[0.5,1,0],[0.75,1,0],[1,1,0],[0,0.25,0],[0,0.5,0],[0,0.75,0],[1,0.25,0],[1,0.5,0],[1,0.75,0]];outlineConnect=0;fontColor=#232F3E;gradientColor=#F54749;gradientDirection=north;fillColor=#C7131F;strokeColor=#ffffff;dashed=0;verticalLabelPosition=bottom;verticalAlign=top;align=center;html=1;fontSize=12;fontStyle=0;aspect=fixed;shape=mxgraph.aws4.resourceIcon;resIcon=mxgraph.aws4.cloud_directory;" parent="1" vertex="1">
          <mxGeometry x="446" y="610" width="78" height="78" as="geometry" />
        </mxCell>
        <mxCell id="IjwQ7RfniSSAgG7k8dG2-31" value="Amazon CloudWatch" style="sketch=0;points=[[0,0,0],[0.25,0,0],[0.5,0,0],[0.75,0,0],[1,0,0],[0,1,0],[0.25,1,0],[0.5,1,0],[0.75,1,0],[1,1,0],[0,0.25,0],[0,0.5,0],[0,0.75,0],[1,0.25,0],[1,0.5,0],[1,0.75,0]];points=[[0,0,0],[0.25,0,0],[0.5,0,0],[0.75,0,0],[1,0,0],[0,1,0],[0.25,1,0],[0.5,1,0],[0.75,1,0],[1,1,0],[0,0.25,0],[0,0.5,0],[0,0.75,0],[1,0.25,0],[1,0.5,0],[1,0.75,0]];outlineConnect=0;fontColor=#232F3E;gradientColor=#F34482;gradientDirection=north;fillColor=#BC1356;strokeColor=#ffffff;dashed=0;verticalLabelPosition=bottom;verticalAlign=top;align=center;html=1;fontSize=12;fontStyle=0;aspect=fixed;shape=mxgraph.aws4.resourceIcon;resIcon=mxgraph.aws4.cloudwatch_2;" parent="1" vertex="1">
          <mxGeometry x="630" y="521" width="78" height="78" as="geometry" />
        </mxCell>
        <mxCell id="rf60wUmHrjT9KDY4V9XP-1" value="Directory Service" style="sketch=0;points=[[0,0,0],[0.25,0,0],[0.5,0,0],[0.75,0,0],[1,0,0],[0,1,0],[0.25,1,0],[0.5,1,0],[0.75,1,0],[1,1,0],[0,0.25,0],[0,0.5,0],[0,0.75,0],[1,0.25,0],[1,0.5,0],[1,0.75,0]];outlineConnect=0;fontColor=#232F3E;gradientColor=#F54749;gradientDirection=north;fillColor=#C7131F;strokeColor=#ffffff;dashed=0;verticalLabelPosition=bottom;verticalAlign=top;align=center;html=1;fontSize=12;fontStyle=0;aspect=fixed;shape=mxgraph.aws4.resourceIcon;resIcon=mxgraph.aws4.directory_service;" parent="1" vertex="1">
          <mxGeometry x="280.75" y="610" width="78" height="78" as="geometry" />
        </mxCell>
        <mxCell id="XPTqr4eP9nlIjBYoCOKv-10" style="edgeStyle=orthogonalEdgeStyle;rounded=0;orthogonalLoop=1;jettySize=auto;html=1;entryX=0;entryY=0.75;entryDx=0;entryDy=0;entryPerimeter=0;endArrow=none;endFill=0;dashed=1;dashPattern=8 8;" parent="1" source="XPTqr4eP9nlIjBYoCOKv-5" target="IjwQ7RfniSSAgG7k8dG2-6" edge="1">
          <mxGeometry relative="1" as="geometry">
            <Array as="points">
              <mxPoint x="240" y="490" />
              <mxPoint x="240" y="469" />
            </Array>
          </mxGeometry>
        </mxCell>
        <mxCell id="XPTqr4eP9nlIjBYoCOKv-5" value="Windows 10 &lt;br&gt;Bundle" style="outlineConnect=0;dashed=0;verticalLabelPosition=bottom;verticalAlign=top;align=center;html=1;shape=mxgraph.aws3.ami;fillColor=#F58534;gradientColor=none;" parent="1" vertex="1">
          <mxGeometry x="155.38" y="470" width="41.25" height="40" as="geometry" />
        </mxCell>
        <mxCell id="XPTqr4eP9nlIjBYoCOKv-11" value="AWS Account" style="points=[[0,0],[0.25,0],[0.5,0],[0.75,0],[1,0],[1,0.25],[1,0.5],[1,0.75],[1,1],[0.75,1],[0.5,1],[0.25,1],[0,1],[0,0.75],[0,0.5],[0,0.25]];outlineConnect=0;gradientColor=none;html=1;whiteSpace=wrap;fontSize=12;fontStyle=0;container=1;pointerEvents=0;collapsible=0;recursiveResize=0;shape=mxgraph.aws4.group;grIcon=mxgraph.aws4.group_account;strokeColor=#CD2264;fillColor=none;verticalAlign=top;align=left;spacingLeft=30;fontColor=#CD2264;dashed=0;" parent="1" vertex="1">
          <mxGeometry x="20" y="340" width="790" height="430" as="geometry" />
        </mxCell>
        <mxCell id="XPTqr4eP9nlIjBYoCOKv-13" value="" style="rounded=0;whiteSpace=wrap;html=1;gradientColor=none;fillColor=none;" parent="XPTqr4eP9nlIjBYoCOKv-11" vertex="1">
          <mxGeometry x="200" y="50" width="330" height="340" as="geometry" />
        </mxCell>
        <mxCell id="XPTqr4eP9nlIjBYoCOKv-17" style="edgeStyle=orthogonalEdgeStyle;rounded=0;orthogonalLoop=1;jettySize=auto;html=1;" parent="1" source="XPTqr4eP9nlIjBYoCOKv-13" target="IjwQ7RfniSSAgG7k8dG2-31" edge="1">
          <mxGeometry relative="1" as="geometry" />
        </mxCell>
        <mxCell id="HX5V_HWNUlJfMmV4JM3K-6" style="edgeStyle=orthogonalEdgeStyle;rounded=0;orthogonalLoop=1;jettySize=auto;html=1;entryX=0.5;entryY=0;entryDx=0;entryDy=0;" edge="1" parent="1" source="IjwQ7RfniSSAgG7k8dG2-1" target="IjwQ7RfniSSAgG7k8dG2-3">
          <mxGeometry relative="1" as="geometry" />
        </mxCell>
        <mxCell id="HX5V_HWNUlJfMmV4JM3K-7" style="edgeStyle=orthogonalEdgeStyle;rounded=0;orthogonalLoop=1;jettySize=auto;html=1;entryX=0.5;entryY=0;entryDx=0;entryDy=0;" edge="1" parent="1" target="IjwQ7RfniSSAgG7k8dG2-18">
          <mxGeometry relative="1" as="geometry">
            <mxPoint x="398" y="100" as="sourcePoint" />
            <Array as="points">
              <mxPoint x="398" y="100" />
              <mxPoint x="257" y="100" />
            </Array>
          </mxGeometry>
        </mxCell>
        <mxCell id="HX5V_HWNUlJfMmV4JM3K-8" style="edgeStyle=orthogonalEdgeStyle;rounded=0;orthogonalLoop=1;jettySize=auto;html=1;entryX=0.5;entryY=0;entryDx=0;entryDy=0;" edge="1" parent="1" target="IjwQ7RfniSSAgG7k8dG2-16">
          <mxGeometry relative="1" as="geometry">
            <mxPoint x="398" y="100" as="sourcePoint" />
            <Array as="points">
              <mxPoint x="398" y="100" />
              <mxPoint x="537" y="100" />
            </Array>
          </mxGeometry>
        </mxCell>
        <mxCell id="IjwQ7RfniSSAgG7k8dG2-1" value="User" style="shape=umlActor;verticalLabelPosition=bottom;verticalAlign=top;html=1;outlineConnect=0;" parent="1" vertex="1">
          <mxGeometry x="382.63" y="10" width="30" height="60" as="geometry" />
        </mxCell>
      </root>
    </mxGraphModel>
  </diagram>
</mxfile>
